<svg id="Layer_1" data-name="Layer 1" xmlns="http://www.w3.org/2000/svg" viewBox="0 0 116.44 49.58"><defs><style>.cls-1{fill:none;}.cls-2{fill:#fff;}</style></defs><path class="cls-1" d="M-173.79,13.74a45.81,45.81,0,0,0,.44-6.24,24.86,24.86,0,0,0-.55-5.45A11.75,11.75,0,0,0-175.59-2a7.48,7.48,0,0,0-2.86-2.51,8.83,8.83,0,0,0-4.05-.86,9.32,9.32,0,0,0-4.66,1.2A13.64,13.64,0,0,0-191-.95a22.21,22.21,0,0,0-2.95,4.68A36.24,36.24,0,0,0-196,9.31a42.29,42.29,0,0,0-1,4.43" transform="translate(275.81 8.82)"/><path class="cls-1" d="M-244.24,1.88a6.37,6.37,0,0,0-.7-3.16,5.17,5.17,0,0,0-1.87-1.9,7.64,7.64,0,0,0-2.69-.92,20.41,20.41,0,0,0-3.18-.24h-1.26l-3.73,16.74h1.42a22,22,0,0,0,4.92-.51,9.3,9.3,0,0,0,3.79-1.72,8,8,0,0,0,2.44-3.24A13,13,0,0,0-244.24,1.88Z" transform="translate(275.81 8.82)"/><path class="cls-2" d="M-241.74,11.44a15.81,15.81,0,0,0,3.82-2.68,11.66,11.66,0,0,0,2.55-3.55,10.3,10.3,0,0,0,.93-4.4,8.78,8.78,0,0,0-.62-3.22,6.44,6.44,0,0,0-2.21-2.78,12.57,12.57,0,0,0-4.36-1.93,28.37,28.37,0,0,0-7.09-.73h-19.53l-.42,2,4.18,1.17a1.49,1.49,0,0,1,1,.68,1.76,1.76,0,0,1,.15,1.26L-267,13.74h23.74a22.92,22.92,0,0,0-3.18-.53A22.93,22.93,0,0,0-241.74,11.44Zm-5.8-1.27a9.3,9.3,0,0,1-3.79,1.72,22,22,0,0,1-4.92.51h-1.42l3.73-16.74h1.26a20.41,20.41,0,0,1,3.18.24,7.64,7.64,0,0,1,2.69.92,5.17,5.17,0,0,1,1.87,1.9,6.37,6.37,0,0,1,.7,3.16,13,13,0,0,1-.86,5.05A8,8,0,0,1-247.54,10.17Z" transform="translate(275.81 8.82)"/><path class="cls-2" d="M-211.25-4A3.32,3.32,0,0,1-210-4.7l4-1.17.45-2h-20.37l-.46,2,4.19,1.17a1.54,1.54,0,0,1,.92.68,1.58,1.58,0,0,1,.18,1.26l-3.66,16.5h9.09L-212-2.76A2.33,2.33,0,0,1-211.25-4Z" transform="translate(275.81 8.82)"/><path class="cls-2" d="M-196,9.31a36.24,36.24,0,0,1,2.11-5.58A22.21,22.21,0,0,1-191-.95a13.64,13.64,0,0,1,3.81-3.23,9.32,9.32,0,0,1,4.66-1.2,8.83,8.83,0,0,1,4.05.86A7.48,7.48,0,0,1-175.59-2a11.75,11.75,0,0,1,1.69,4.06,24.86,24.86,0,0,1,.55,5.45,45.81,45.81,0,0,1-.44,6.24h9.84a30.16,30.16,0,0,0,.4-5,22.07,22.07,0,0,0-1.14-6.93A15.29,15.29,0,0,0-168-3.76a15.31,15.31,0,0,0-5.61-3.72,21.89,21.89,0,0,0-8-1.34,23.8,23.8,0,0,0-7.69,1.2,24,24,0,0,0-6.42,3.28A25.14,25.14,0,0,0-200.88.54a30.23,30.23,0,0,0-3.72,6,33.06,33.06,0,0,0-2.25,6.73c0,.15-.05.3-.08.44h9.9A42.29,42.29,0,0,1-196,9.31Z" transform="translate(275.81 8.82)"/><path class="cls-1" d="M-255.5,37.38q5.92,0,9-2.87c2-1.92,3.07-4.89,3.07-8.91A8.68,8.68,0,0,0-244.1,22a5.69,5.69,0,0,0-2-2.38,9.16,9.16,0,0,0-3.42-1.33,25.38,25.38,0,0,0-4.85-.41H-260l-4.32,19.47Z" transform="translate(275.81 8.82)"/><path class="cls-2" d="M-269.59,35.47a2.31,2.31,0,0,1-.73,1.23,2.82,2.82,0,0,1-1.24.68l-3.9.88-.35,1.52h18.88a35.22,35.22,0,0,0,4.64-.31,27.09,27.09,0,0,0,4.6-1,22.33,22.33,0,0,0,4.21-1.8,14,14,0,0,0,3.42-2.7,12.26,12.26,0,0,0,2.32-3.71,12.94,12.94,0,0,0,.86-4.85,8.15,8.15,0,0,0-.83-3.7A8.36,8.36,0,0,0-240,18.87,11.75,11.75,0,0,0-243.65,17c-.39-.13-.79-.24-1.2-.35h-20.57Zm15.19-17.56a25.38,25.38,0,0,1,4.85.41,9.16,9.16,0,0,1,3.42,1.33,5.69,5.69,0,0,1,2,2.38,8.68,8.68,0,0,1,.67,3.57c0,4-1,7-3.07,8.91s-5.05,2.87-9,2.87h-8.83L-260,17.91Z" transform="translate(275.81 8.82)"/><path class="cls-2" d="M-230.07,35.47a2.38,2.38,0,0,1-.73,1.23,2.85,2.85,0,0,1-1.25.68l-3.89.88-.36,1.52h17l.36-1.52-4.32-.88a1.41,1.41,0,0,1-.94-.65,1.66,1.66,0,0,1-.16-1.26l4.17-18.83h-5.71Z" transform="translate(275.81 8.82)"/><path class="cls-2" d="M-175.79,16.64c0,.21-.05.4-.08.61a40.19,40.19,0,0,1-1.51,6.28,33.33,33.33,0,0,1-2.51,5.75A22.26,22.26,0,0,1-183.41,34a15.86,15.86,0,0,1-4.53,3.23,12.82,12.82,0,0,1-5.53,1.18,12,12,0,0,1-5.24-1.07,9.59,9.59,0,0,1-3.65-3,13.58,13.58,0,0,1-2.13-4.64,23.7,23.7,0,0,1-.69-5.9,39,39,0,0,1,.47-5.92q.09-.63.21-1.26h-6.31a33.2,33.2,0,0,0-.67,6.53,21.84,21.84,0,0,0,1.12,7.2A15.18,15.18,0,0,0-207,35.92a14.86,14.86,0,0,0,5.42,3.57,20.46,20.46,0,0,0,7.48,1.26,22.55,22.55,0,0,0,7.8-1.29A22.93,22.93,0,0,0-180,36a24.5,24.5,0,0,0,4.85-5.11,31.92,31.92,0,0,0,3.42-6.15,33.71,33.71,0,0,0,2-6.6c.1-.49.18-1,.25-1.45Z" transform="translate(275.81 8.82)"/><rect class="cls-2" y="22.06" width="116.44" height="1"/></svg>