<svg xmlns="http://www.w3.org/2000/svg" viewBox="0 0 116.44 49.58"><defs><style>.cls-1{fill:none;}.cls-2{fill:#231f20;}</style></defs><g id="Layer_2" data-name="Layer 2"><g id="Layer_1-2" data-name="Layer 1"><path class="cls-1" d="M102,22.56a45.78,45.78,0,0,0,.43-6.24,24.32,24.32,0,0,0-.55-5.45,11.83,11.83,0,0,0-1.69-4.06A7.46,7.46,0,0,0,97.37,4.3a9,9,0,0,0-4.06-.86,9.29,9.29,0,0,0-4.65,1.2,13.85,13.85,0,0,0-3.82,3.23,22.43,22.43,0,0,0-3,4.69,37.57,37.57,0,0,0-2.11,5.58,44.16,44.16,0,0,0-1,4.42"/><path class="cls-1" d="M31.57,10.71a6.39,6.39,0,0,0-.69-3.17A5.06,5.06,0,0,0,29,5.65a7.59,7.59,0,0,0-2.69-.93,20.5,20.5,0,0,0-3.18-.24H21.87L18.14,21.22h1.43a22.6,22.6,0,0,0,4.91-.5A9.68,9.68,0,0,0,28.28,19a7.88,7.88,0,0,0,2.43-3.25A12.81,12.81,0,0,0,31.57,10.71Z"/><path d="M34.07,20.26a15.6,15.6,0,0,0,3.83-2.68A11.71,11.71,0,0,0,40.45,14a10.4,10.4,0,0,0,.92-4.39,8.59,8.59,0,0,0-.62-3.23,6.41,6.41,0,0,0-2.2-2.78A12.63,12.63,0,0,0,34.18,1.7,28.82,28.82,0,0,0,27.1,1H7.56L7.14,3l4.19,1.17a1.48,1.48,0,0,1,.95.68,1.68,1.68,0,0,1,.15,1.27L8.77,22.56H32.52A23.07,23.07,0,0,0,29.33,22,22.72,22.72,0,0,0,34.07,20.26ZM28.28,19a9.68,9.68,0,0,1-3.8,1.72,22.6,22.6,0,0,1-4.91.5H18.14L21.87,4.48h1.27a20.5,20.5,0,0,1,3.18.24A7.59,7.59,0,0,1,29,5.65a5.06,5.06,0,0,1,1.87,1.89,6.39,6.39,0,0,1,.69,3.17,12.81,12.81,0,0,1-.86,5A7.88,7.88,0,0,1,28.28,19Z"/><path d="M64.57,4.83a3.36,3.36,0,0,1,1.23-.71l4-1.17.46-2H49.9l-.45,2,4.18,1.17a1.63,1.63,0,0,1,.93.68,1.6,1.6,0,0,1,.18,1.27L51.08,22.56h9.08L63.82,6.07A2.34,2.34,0,0,1,64.57,4.83Z"/><path d="M79.78,18.14a37.57,37.57,0,0,1,2.11-5.58,22.43,22.43,0,0,1,3-4.69,13.85,13.85,0,0,1,3.82-3.23,9.29,9.29,0,0,1,4.65-1.2,9,9,0,0,1,4.06.86,7.46,7.46,0,0,1,2.85,2.51,11.83,11.83,0,0,1,1.69,4.06,24.32,24.32,0,0,1,.55,5.45,45.78,45.78,0,0,1-.43,6.24h9.84a30,30,0,0,0,.39-5,21.77,21.77,0,0,0-1.13-6.92,15.47,15.47,0,0,0-3.33-5.57,15.17,15.17,0,0,0-5.61-3.71,21.67,21.67,0,0,0-8-1.35,23.75,23.75,0,0,0-7.69,1.2A24.22,24.22,0,0,0,80,4.48a25.41,25.41,0,0,0-5.11,4.88,29.73,29.73,0,0,0-3.71,6A32.38,32.38,0,0,0,69,22.13c0,.14,0,.29-.08.43h9.9A44.16,44.16,0,0,1,79.78,18.14Z"/><path class="cls-1" d="M20.31,46.2q5.94,0,9-2.87t3.07-8.91a8.44,8.44,0,0,0-.67-3.56,5.63,5.63,0,0,0-2-2.39,9.15,9.15,0,0,0-3.43-1.33,25.38,25.38,0,0,0-4.85-.41H15.8L11.49,46.2Z"/><path d="M6.23,44.29a2.38,2.38,0,0,1-.73,1.23,2.81,2.81,0,0,1-1.25.68l-3.89.88L0,48.6H18.88a35.11,35.11,0,0,0,4.64-.31,27.2,27.2,0,0,0,4.61-1,22.52,22.52,0,0,0,4.2-1.8,13.79,13.79,0,0,0,3.42-2.7,11.84,11.84,0,0,0,2.32-3.71,12.71,12.71,0,0,0,.86-4.85,8.18,8.18,0,0,0-.82-3.7,8.39,8.39,0,0,0-2.34-2.84,12,12,0,0,0-3.6-1.88c-.39-.13-.8-.24-1.21-.34H10.39ZM21.41,26.73a25.38,25.38,0,0,1,4.85.41,9.15,9.15,0,0,1,3.43,1.33,5.63,5.63,0,0,1,2,2.39,8.44,8.44,0,0,1,.67,3.56q0,6-3.07,8.91t-9,2.87H11.49L15.8,26.73Z"/><path d="M45.75,44.29A2.45,2.45,0,0,1,45,45.52a2.81,2.81,0,0,1-1.25.68l-3.9.88-.35,1.52h17l.35-1.52-4.31-.88a1.39,1.39,0,0,1-.94-.65,1.61,1.61,0,0,1-.16-1.26l4.16-18.82H49.91Z"/><path d="M100,25.47c0,.2,0,.4-.09.6a39.07,39.07,0,0,1-1.5,6.28,33.81,33.81,0,0,1-2.52,5.76,21.86,21.86,0,0,1-3.52,4.75,15.72,15.72,0,0,1-4.53,3.23,12.79,12.79,0,0,1-5.53,1.18A11.87,11.87,0,0,1,77.1,46.2a9.59,9.59,0,0,1-3.65-3,13.3,13.3,0,0,1-2.12-4.64,23.23,23.23,0,0,1-.7-5.9,40.44,40.44,0,0,1,.47-5.92c.06-.42.14-.84.21-1.25H65A33.08,33.08,0,0,0,64.34,32a21.84,21.84,0,0,0,1.12,7.2,14.45,14.45,0,0,0,8.72,9.12,20.53,20.53,0,0,0,7.48,1.27,22.47,22.47,0,0,0,7.8-1.3,23.13,23.13,0,0,0,6.32-3.51,25,25,0,0,0,4.85-5.11,32.14,32.14,0,0,0,3.42-6.14,34.71,34.71,0,0,0,2-6.61c.09-.48.17-1,.25-1.44Z"/><rect class="cls-2" y="22.06" width="116.44" height="1"/></g></g></svg>